<svg xmlns="http://www.w3.org/2000/svg" xmlns:xlink="http://www.w3.org/1999/xlink" width="500" zoomAndPan="magnify" viewBox="0 0 375 374.999991" height="500" preserveAspectRatio="xMidYMid meet" version="1.0"><defs><g/><clipPath id="dabce24f3d"><path d="M 172 123.546875 L 213.273438 123.546875 L 213.273438 165 L 172 165 Z M 172 123.546875 " clip-rule="nonzero"/></clipPath><clipPath id="c0304d874e"><path d="M 101.898438 197 L 137 197 L 137 233 L 101.898438 233 Z M 101.898438 197 " clip-rule="nonzero"/></clipPath><clipPath id="0ae61b7015"><path d="M 183 229 L 203 229 L 203 248.796875 L 183 248.796875 Z M 183 229 " clip-rule="nonzero"/></clipPath><clipPath id="7b78f6c584"><path d="M 80 85 L 238 85 L 238 269 L 80 269 Z M 80 85 " clip-rule="nonzero"/></clipPath><clipPath id="73e97744fb"><path d="M 140.5625 37.5 L 243.890625 97.035156 L 140.917969 275.742188 L 37.59375 216.207031 Z M 140.5625 37.5 " clip-rule="nonzero"/></clipPath><clipPath id="cf8dd8933c"><path d="M 140.5625 37.5 L 243.890625 97.035156 L 140.917969 275.742188 L 37.59375 216.207031 Z M 140.5625 37.5 " clip-rule="nonzero"/></clipPath></defs><g clip-path="url(#dabce24f3d)"><path fill="#fa9b47" d="M 192.984375 164.410156 C 181.757812 164.410156 172.625 155.277344 172.625 144.050781 C 172.625 132.824219 181.757812 123.691406 192.984375 123.691406 C 204.207031 123.691406 213.34375 132.824219 213.34375 144.050781 C 213.34375 155.277344 204.207031 164.410156 192.984375 164.410156 Z M 192.984375 129.308594 C 184.855469 129.308594 178.242188 135.921875 178.242188 144.050781 C 178.242188 152.179688 184.851562 158.792969 192.984375 158.792969 C 201.113281 158.792969 207.722656 152.179688 207.722656 144.050781 C 207.722656 135.925781 201.109375 129.308594 192.984375 129.308594 Z M 192.984375 129.308594 " fill-opacity="1" fill-rule="nonzero"/></g><g clip-path="url(#c0304d874e)"><path fill="#fa9b47" d="M 119.4375 197.191406 C 129.070312 197.191406 136.910156 205.027344 136.910156 214.660156 C 136.910156 224.296875 129.070312 232.132812 119.4375 232.132812 C 109.804688 232.132812 101.96875 224.296875 101.96875 214.660156 C 101.96875 205.027344 109.804688 197.191406 119.4375 197.191406 Z M 119.4375 226.515625 C 125.976562 226.515625 131.292969 221.199219 131.292969 214.664062 C 131.292969 208.125 125.976562 202.808594 119.4375 202.808594 C 112.902344 202.808594 107.585938 208.125 107.585938 214.664062 C 107.585938 221.195312 112.902344 226.515625 119.4375 226.515625 Z M 119.4375 226.515625 " fill-opacity="1" fill-rule="nonzero"/></g><path fill="#268936" d="M 139.496094 152.542969 C 134.300781 152.542969 130.074219 148.316406 130.074219 143.121094 C 130.074219 137.925781 134.300781 133.699219 139.496094 133.699219 C 144.691406 133.699219 148.917969 137.925781 148.917969 143.121094 C 148.917969 148.316406 144.691406 152.542969 139.496094 152.542969 Z M 139.496094 139.316406 C 137.398438 139.316406 135.691406 141.023438 135.691406 143.121094 C 135.691406 145.21875 137.398438 146.925781 139.496094 146.925781 C 141.59375 146.925781 143.300781 145.21875 143.300781 143.121094 C 143.300781 141.023438 141.59375 139.316406 139.496094 139.316406 Z M 139.496094 139.316406 " fill-opacity="1" fill-rule="nonzero"/><path fill="#268936" d="M 188.699219 193.386719 C 188.699219 188.191406 192.929688 183.964844 198.121094 183.964844 C 203.316406 183.964844 207.546875 188.191406 207.546875 193.386719 C 207.546875 198.582031 203.316406 202.808594 198.121094 202.808594 C 192.929688 202.808594 188.699219 198.582031 188.699219 193.386719 Z M 201.925781 193.386719 C 201.925781 191.289062 200.222656 189.582031 198.121094 189.582031 C 196.023438 189.582031 194.316406 191.289062 194.316406 193.386719 C 194.316406 195.484375 196.023438 197.191406 198.121094 197.191406 C 200.222656 197.191406 201.925781 195.484375 201.925781 193.386719 Z M 201.925781 193.386719 " fill-opacity="1" fill-rule="nonzero"/><g clip-path="url(#0ae61b7015)"><path fill="#268936" d="M 192.984375 229.683594 C 198.179688 229.683594 202.40625 233.914062 202.40625 239.109375 C 202.40625 244.304688 198.179688 248.53125 192.984375 248.53125 C 187.789062 248.53125 183.558594 244.304688 183.558594 239.109375 C 183.558594 233.914062 187.789062 229.683594 192.984375 229.683594 Z M 192.984375 242.914062 C 195.082031 242.914062 196.789062 241.207031 196.789062 239.109375 C 196.789062 237.011719 195.082031 235.304688 192.984375 235.304688 C 190.882812 235.304688 189.179688 237.011719 189.179688 239.109375 C 189.179688 241.207031 190.882812 242.914062 192.984375 242.914062 Z M 192.984375 242.914062 " fill-opacity="1" fill-rule="nonzero"/></g><path fill="#002134" d="M 134.25 201.792969 C 133.257812 200.597656 133.425781 198.828125 134.621094 197.835938 L 143.152344 190.773438 C 142.320312 189.082031 141.84375 187.191406 141.84375 185.1875 C 141.84375 180.640625 144.246094 176.65625 147.839844 174.402344 L 141.992188 157.082031 C 141.496094 155.613281 142.285156 154.019531 143.753906 153.523438 C 145.226562 153.027344 146.820312 153.816406 147.3125 155.285156 L 153.140625 172.542969 C 153.609375 172.488281 154.085938 172.457031 154.570312 172.457031 C 156.96875 172.457031 159.207031 173.136719 161.125 174.292969 L 171.824219 161.164062 C 172.804688 159.964844 174.574219 159.78125 175.773438 160.761719 C 176.976562 161.742188 177.15625 163.511719 176.179688 164.714844 L 165.195312 178.191406 C 166.414062 180.03125 167.152344 182.203125 167.269531 184.539062 L 184.847656 188.417969 C 186.363281 188.753906 187.320312 190.253906 186.988281 191.765625 C 186.699219 193.078125 185.535156 193.96875 184.246094 193.96875 C 184.046875 193.96875 183.84375 193.949219 183.636719 193.902344 L 166.320312 190.082031 C 165.542969 191.933594 164.34375 193.554688 162.84375 194.84375 L 186.480469 226.003906 C 187.417969 227.242188 187.179688 229.003906 185.941406 229.941406 C 185.433594 230.324219 184.835938 230.511719 184.246094 230.511719 C 183.398438 230.511719 182.558594 230.128906 182.003906 229.398438 L 157.796875 197.488281 C 156.765625 197.757812 155.6875 197.917969 154.570312 197.917969 C 151.585938 197.917969 148.84375 196.875 146.671875 195.152344 L 138.203125 202.164062 C 137.679688 202.601562 137.042969 202.8125 136.414062 202.8125 C 135.605469 202.808594 134.804688 202.460938 134.25 201.792969 Z M 154.570312 192.296875 C 158.492188 192.296875 161.683594 189.105469 161.683594 185.1875 C 161.683594 181.265625 158.492188 178.074219 154.570312 178.074219 C 150.652344 178.074219 147.460938 181.265625 147.460938 185.1875 C 147.460938 189.105469 150.652344 192.296875 154.570312 192.296875 Z M 154.570312 192.296875 " fill-opacity="1" fill-rule="nonzero"/><g clip-path="url(#7b78f6c584)"><g clip-path="url(#73e97744fb)"><g clip-path="url(#cf8dd8933c)"><path fill="#002134" d="M 233.808594 91.226562 C 229.191406 96.972656 227.34375 98.261719 222.167969 96.734375 C 219.769531 95.445312 217.320312 94.257812 214.820312 93.175781 C 212.320312 92.089844 209.78125 91.117188 207.199219 90.25 C 204.617188 89.382812 202.003906 88.625 199.355469 87.980469 C 196.710938 87.332031 194.039062 86.800781 191.347656 86.382812 C 188.65625 85.960938 185.953125 85.65625 183.234375 85.46875 C 180.519531 85.277344 177.796875 85.203125 175.074219 85.242188 C 172.351562 85.285156 169.632812 85.4375 166.921875 85.710938 C 164.210938 85.980469 161.515625 86.367188 158.839844 86.867188 C 156.160156 87.367188 153.511719 87.976562 150.882812 88.703125 C 148.257812 89.425781 145.667969 90.261719 143.113281 91.207031 C 140.558594 92.148438 138.046875 93.199219 135.582031 94.359375 C 133.113281 95.515625 130.703125 96.773438 128.34375 98.136719 C 125.984375 99.496094 123.683594 100.957031 121.449219 102.511719 C 119.214844 104.070312 117.046875 105.71875 114.953125 107.457031 C 112.855469 109.199219 110.839844 111.023438 108.898438 112.933594 C 106.957031 114.847656 105.101562 116.835938 103.328125 118.90625 C 101.554688 120.972656 99.875 123.113281 98.285156 125.324219 C 96.691406 127.539062 95.199219 129.8125 93.800781 132.148438 C 92.402344 134.488281 91.105469 136.882812 89.914062 139.328125 C 88.71875 141.777344 87.628906 144.273438 86.644531 146.8125 C 85.660156 149.351562 84.789062 151.929688 84.023438 154.542969 C 83.257812 157.160156 82.605469 159.800781 82.066406 162.472656 C 81.523438 165.140625 81.097656 167.828125 80.785156 170.535156 C 80.472656 173.242188 80.273438 175.957031 80.191406 178.679688 C 80.109375 181.402344 80.144531 184.121094 80.289062 186.84375 C 80.4375 189.5625 80.703125 192.273438 81.082031 194.96875 C 81.457031 197.667969 81.949219 200.34375 82.554688 203 C 83.160156 205.65625 83.875 208.28125 84.703125 210.875 C 85.53125 213.472656 86.46875 216.027344 87.511719 218.542969 C 88.558594 221.058594 89.707031 223.527344 90.960938 225.945312 C 92.214844 228.363281 93.566406 230.726562 95.019531 233.027344 C 96.472656 235.332031 98.023438 237.570312 99.667969 239.742188 C 106.726562 249.074219 115.214844 256.847656 125.132812 263.058594 C 125.027344 263.359375 124.960938 263.664062 124.929688 263.980469 C 124.902344 264.292969 124.910156 264.605469 124.957031 264.917969 C 125.007812 265.230469 125.089844 265.535156 125.214844 265.824219 C 125.335938 266.117188 125.492188 266.390625 125.679688 266.640625 C 125.867188 266.894531 126.085938 267.121094 126.328125 267.320312 C 126.574219 267.519531 126.839844 267.6875 127.125 267.824219 C 127.410156 267.957031 127.710938 268.054688 128.019531 268.117188 C 128.328125 268.179688 128.640625 268.203125 128.957031 268.1875 C 129.273438 268.171875 129.582031 268.117188 129.882812 268.027344 C 130.1875 267.933594 130.472656 267.808594 130.746094 267.644531 C 131.015625 267.484375 131.261719 267.289062 131.488281 267.066406 C 131.710938 266.84375 131.90625 266.597656 132.066406 266.328125 C 132.230469 266.058594 132.359375 265.769531 132.453125 265.46875 C 132.542969 265.167969 132.597656 264.859375 132.617188 264.542969 C 132.632812 264.226562 132.609375 263.914062 132.550781 263.605469 C 132.492188 263.292969 132.394531 262.996094 132.261719 262.710938 C 132.128906 262.421875 131.960938 262.15625 131.761719 261.910156 C 131.5625 261.667969 131.335938 261.449219 131.085938 261.257812 C 130.832031 261.070312 130.5625 260.910156 130.269531 260.789062 C 129.980469 260.664062 129.675781 260.578125 129.367188 260.53125 C 129.054688 260.480469 128.738281 260.472656 128.425781 260.5 C 128.109375 260.527344 127.804688 260.59375 127.503906 260.695312 C 127.207031 260.800781 126.925781 260.9375 126.660156 261.109375 C 126.398438 261.285156 126.15625 261.484375 125.941406 261.71875 C 83.167969 234.769531 68.902344 178.414062 94.363281 134.234375 C 120.035156 89.679688 176.695312 73.835938 221.640625 98.234375 C 225.335938 101.8125 225.097656 104.109375 222.492188 110.855469 C 228.097656 103.882812 229.617188 103.472656 237.964844 106.695312 C 230.992188 101.09375 230.585938 99.574219 233.808594 91.226562 Z M 233.808594 91.226562 " fill-opacity="1" fill-rule="nonzero"/></g></g></g><g fill="#002134" fill-opacity="1"><g transform="translate(218.818566, 199.730557)"><g><path d="M 5.390625 -14.25 L 5.390625 -10.203125 L 11.5625 -10.203125 L 11.5625 -7.203125 L 5.390625 -7.203125 L 5.390625 -3.046875 L 13.078125 -3.046875 L 13.078125 0 L 1.890625 0 L 1.890625 -17.3125 L 13.078125 -17.3125 L 13.078125 -14.25 Z M 5.390625 -14.25 "/></g></g></g><g fill="#002134" fill-opacity="1"><g transform="translate(240.560682, 199.730557)"><g><path d="M 15.34375 -17.3125 L 15.34375 0 L 11.828125 0 L 11.828125 -7.171875 L 5.390625 -7.171875 L 5.390625 0 L 1.890625 0 L 1.890625 -17.3125 L 5.390625 -17.3125 L 5.390625 -10.234375 L 11.828125 -10.234375 L 11.828125 -17.3125 Z M 15.34375 -17.3125 "/></g></g></g><g fill="#002134" fill-opacity="1"><g transform="translate(265.433998, 199.730557)"><g><path d="M 19.953125 -17.3125 L 19.953125 0 L 16.4375 0 L 16.4375 -13.390625 L 16.0625 -13.390625 L 12.671875 -0.765625 L 9.15625 -0.765625 L 5.78125 -13.390625 L 5.390625 -13.390625 L 5.390625 0 L 1.890625 0 L 1.890625 -17.3125 L 7.859375 -17.3125 L 10.921875 -4.703125 L 13.96875 -17.3125 Z M 19.953125 -17.3125 "/></g></g></g><g fill="#002134" fill-opacity="1"><g transform="translate(294.915017, 199.730557)"><g><path d="M 1.890625 -17.3125 L 5.390625 -17.3125 L 5.390625 0 L 1.890625 0 Z M 1.890625 -17.3125 "/></g></g></g><g fill="#002134" fill-opacity="1"><g transform="translate(224.952405, 211.536164)"><g><path d="M 0.96875 -3.75 L 0.96875 -2.3125 L 2.671875 -2.3125 L 2.671875 -1.90625 L 0.96875 -1.90625 L 0.96875 -0.40625 L 3.03125 -0.40625 L 3.03125 0 L 0.515625 0 L 0.515625 -4.15625 L 3.03125 -4.15625 L 3.03125 -3.75 Z M 0.96875 -3.75 "/></g></g></g><g fill="#002134" fill-opacity="1"><g transform="translate(228.570434, 211.536164)"><g><path d="M 3.546875 -4.15625 L 3.546875 0 L 2.703125 0 L 1.09375 -3.75 L 0.96875 -3.75 L 0.96875 0 L 0.515625 0 L 0.515625 -4.15625 L 1.375 -4.15625 L 2.96875 -0.40625 L 3.09375 -0.40625 L 3.09375 -4.15625 Z M 3.546875 -4.15625 "/></g></g></g><g fill="#002134" fill-opacity="1"><g transform="translate(232.926471, 211.536164)"><g><path d="M 3.546875 -4.15625 L 3.546875 0 L 3.078125 0 L 3.078125 -1.875 L 0.96875 -1.875 L 0.96875 0 L 0.515625 0 L 0.515625 -4.15625 L 0.96875 -4.15625 L 0.96875 -2.296875 L 3.078125 -2.296875 L 3.078125 -4.15625 Z M 3.546875 -4.15625 "/></g></g></g><g fill="#002134" fill-opacity="1"><g transform="translate(237.276505, 211.536164)"><g><path d="M 2.671875 -1.0625 L 0.90625 -1.0625 L 0.59375 0 L 0.140625 0 L 1.28125 -4.15625 L 2.296875 -4.15625 L 3.4375 0 L 2.96875 0 Z M 1 -1.484375 L 2.578125 -1.484375 L 1.9375 -3.75 L 1.625 -3.75 Z M 1 -1.484375 "/></g></g></g><g fill="#002134" fill-opacity="1"><g transform="translate(241.152538, 211.536164)"><g><path d="M 3.546875 -4.15625 L 3.546875 0 L 2.703125 0 L 1.09375 -3.75 L 0.96875 -3.75 L 0.96875 0 L 0.515625 0 L 0.515625 -4.15625 L 1.375 -4.15625 L 2.96875 -0.40625 L 3.09375 -0.40625 L 3.09375 -4.15625 Z M 3.546875 -4.15625 "/></g></g></g><g fill="#002134" fill-opacity="1"><g transform="translate(245.508574, 211.536164)"><g><path d="M 1.921875 0.0625 C 1.503906 0.0625 1.179688 -0.015625 0.953125 -0.171875 C 0.722656 -0.328125 0.566406 -0.554688 0.484375 -0.859375 C 0.398438 -1.171875 0.359375 -1.578125 0.359375 -2.078125 C 0.359375 -2.566406 0.398438 -2.960938 0.484375 -3.265625 C 0.566406 -3.578125 0.71875 -3.8125 0.9375 -3.96875 C 1.15625 -4.132812 1.472656 -4.21875 1.890625 -4.21875 C 2.210938 -4.21875 2.585938 -4.171875 3.015625 -4.078125 L 3 -3.6875 C 2.59375 -3.757812 2.242188 -3.796875 1.953125 -3.796875 C 1.640625 -3.796875 1.40625 -3.738281 1.25 -3.625 C 1.09375 -3.519531 0.984375 -3.34375 0.921875 -3.09375 C 0.859375 -2.84375 0.828125 -2.484375 0.828125 -2.015625 C 0.828125 -1.597656 0.851562 -1.273438 0.90625 -1.046875 C 0.96875 -0.816406 1.082031 -0.644531 1.25 -0.53125 C 1.414062 -0.414062 1.671875 -0.359375 2.015625 -0.359375 C 2.285156 -0.359375 2.613281 -0.394531 3 -0.46875 L 3.015625 -0.0625 C 2.609375 0.0195312 2.242188 0.0625 1.921875 0.0625 Z M 1.921875 0.0625 "/></g></g></g><g fill="#002134" fill-opacity="1"><g transform="translate(249.072602, 211.536164)"><g><path d="M 0.96875 -3.75 L 0.96875 -2.3125 L 2.671875 -2.3125 L 2.671875 -1.90625 L 0.96875 -1.90625 L 0.96875 -0.40625 L 3.03125 -0.40625 L 3.03125 0 L 0.515625 0 L 0.515625 -4.15625 L 3.03125 -4.15625 L 3.03125 -3.75 Z M 0.96875 -3.75 "/></g></g></g><g fill="#002134" fill-opacity="1"><g transform="translate(252.690631, 211.536164)"><g><path d="M 1.984375 -4.15625 C 2.410156 -4.15625 2.734375 -4.0625 2.953125 -3.875 C 3.179688 -3.6875 3.332031 -3.453125 3.40625 -3.171875 C 3.488281 -2.890625 3.53125 -2.554688 3.53125 -2.171875 C 3.53125 -1.410156 3.40625 -0.859375 3.15625 -0.515625 C 2.90625 -0.171875 2.515625 0 1.984375 0 L 0.515625 0 L 0.515625 -4.15625 Z M 1.984375 -0.40625 C 2.691406 -0.40625 3.046875 -0.984375 3.046875 -2.140625 C 3.046875 -2.691406 2.957031 -3.097656 2.78125 -3.359375 C 2.613281 -3.617188 2.347656 -3.75 1.984375 -3.75 L 0.96875 -3.75 L 0.96875 -0.40625 Z M 1.984375 -0.40625 "/></g></g></g><g fill="#002134" fill-opacity="1"><g transform="translate(256.860662, 211.536164)"><g/></g></g><g fill="#002134" fill-opacity="1"><g transform="translate(258.480671, 211.536164)"><g><path d="M 3.546875 -4.15625 L 3.546875 0 L 3.078125 0 L 3.078125 -1.875 L 0.96875 -1.875 L 0.96875 0 L 0.515625 0 L 0.515625 -4.15625 L 0.96875 -4.15625 L 0.96875 -2.296875 L 3.078125 -2.296875 L 3.078125 -4.15625 Z M 3.546875 -4.15625 "/></g></g></g><g fill="#002134" fill-opacity="1"><g transform="translate(262.830704, 211.536164)"><g><path d="M 0.96875 -3.75 L 0.96875 -2.3125 L 2.671875 -2.3125 L 2.671875 -1.90625 L 0.96875 -1.90625 L 0.96875 -0.40625 L 3.03125 -0.40625 L 3.03125 0 L 0.515625 0 L 0.515625 -4.15625 L 3.03125 -4.15625 L 3.03125 -3.75 Z M 0.96875 -3.75 "/></g></g></g><g fill="#002134" fill-opacity="1"><g transform="translate(266.448732, 211.536164)"><g><path d="M 2.671875 -1.0625 L 0.90625 -1.0625 L 0.59375 0 L 0.140625 0 L 1.28125 -4.15625 L 2.296875 -4.15625 L 3.4375 0 L 2.96875 0 Z M 1 -1.484375 L 2.578125 -1.484375 L 1.9375 -3.75 L 1.625 -3.75 Z M 1 -1.484375 "/></g></g></g><g fill="#002134" fill-opacity="1"><g transform="translate(270.324765, 211.536164)"><g><path d="M 2.796875 -0.40625 L 2.796875 0 L 0.515625 0 L 0.515625 -4.15625 L 0.96875 -4.15625 L 0.96875 -0.40625 Z M 2.796875 -0.40625 "/></g></g></g><g fill="#002134" fill-opacity="1"><g transform="translate(273.498792, 211.536164)"><g><path d="M 1.359375 -3.734375 L 0.078125 -3.734375 L 0.078125 -4.15625 L 3.078125 -4.15625 L 3.078125 -3.734375 L 1.8125 -3.734375 L 1.8125 0 L 1.359375 0 Z M 1.359375 -3.734375 "/></g></g></g><g fill="#002134" fill-opacity="1"><g transform="translate(276.954818, 211.536164)"><g><path d="M 3.546875 -4.15625 L 3.546875 0 L 3.078125 0 L 3.078125 -1.875 L 0.96875 -1.875 L 0.96875 0 L 0.515625 0 L 0.515625 -4.15625 L 0.96875 -4.15625 L 0.96875 -2.296875 L 3.078125 -2.296875 L 3.078125 -4.15625 Z M 3.546875 -4.15625 "/></g></g></g><g fill="#002134" fill-opacity="1"><g transform="translate(281.30485, 211.536164)"><g><path d="M 1.921875 0.0625 C 1.503906 0.0625 1.179688 -0.015625 0.953125 -0.171875 C 0.722656 -0.328125 0.566406 -0.554688 0.484375 -0.859375 C 0.398438 -1.171875 0.359375 -1.578125 0.359375 -2.078125 C 0.359375 -2.566406 0.398438 -2.960938 0.484375 -3.265625 C 0.566406 -3.578125 0.71875 -3.8125 0.9375 -3.96875 C 1.15625 -4.132812 1.472656 -4.21875 1.890625 -4.21875 C 2.210938 -4.21875 2.585938 -4.171875 3.015625 -4.078125 L 3 -3.6875 C 2.59375 -3.757812 2.242188 -3.796875 1.953125 -3.796875 C 1.640625 -3.796875 1.40625 -3.738281 1.25 -3.625 C 1.09375 -3.519531 0.984375 -3.34375 0.921875 -3.09375 C 0.859375 -2.84375 0.828125 -2.484375 0.828125 -2.015625 C 0.828125 -1.597656 0.851562 -1.273438 0.90625 -1.046875 C 0.96875 -0.816406 1.082031 -0.644531 1.25 -0.53125 C 1.414062 -0.414062 1.671875 -0.359375 2.015625 -0.359375 C 2.285156 -0.359375 2.613281 -0.394531 3 -0.46875 L 3.015625 -0.0625 C 2.609375 0.0195312 2.242188 0.0625 1.921875 0.0625 Z M 1.921875 0.0625 "/></g></g></g><g fill="#002134" fill-opacity="1"><g transform="translate(284.868878, 211.536164)"><g><path d="M 2.671875 -1.0625 L 0.90625 -1.0625 L 0.59375 0 L 0.140625 0 L 1.28125 -4.15625 L 2.296875 -4.15625 L 3.4375 0 L 2.96875 0 Z M 1 -1.484375 L 2.578125 -1.484375 L 1.9375 -3.75 L 1.625 -3.75 Z M 1 -1.484375 "/></g></g></g><g fill="#002134" fill-opacity="1"><g transform="translate(288.74491, 211.536164)"><g><path d="M 0.515625 -4.15625 L 2.046875 -4.15625 C 2.492188 -4.15625 2.828125 -4.050781 3.046875 -3.84375 C 3.265625 -3.632812 3.375 -3.316406 3.375 -2.890625 C 3.375 -2.242188 3.117188 -1.84375 2.609375 -1.6875 L 3.40625 0 L 2.890625 0 L 2.140625 -1.59375 L 0.96875 -1.59375 L 0.96875 0 L 0.515625 0 Z M 2.046875 -2 C 2.609375 -2 2.890625 -2.289062 2.890625 -2.875 C 2.890625 -3.457031 2.609375 -3.75 2.046875 -3.75 L 0.96875 -3.75 L 0.96875 -2 Z M 2.046875 -2 "/></g></g></g><g fill="#002134" fill-opacity="1"><g transform="translate(292.74095, 211.536164)"><g><path d="M 0.96875 -3.75 L 0.96875 -2.3125 L 2.671875 -2.3125 L 2.671875 -1.90625 L 0.96875 -1.90625 L 0.96875 -0.40625 L 3.03125 -0.40625 L 3.03125 0 L 0.515625 0 L 0.515625 -4.15625 L 3.03125 -4.15625 L 3.03125 -3.75 Z M 0.96875 -3.75 "/></g></g></g><g fill="#002134" fill-opacity="1"><g transform="translate(217.108642, 219.536177)"><g><path d="M 4.53125 -4.15625 L 4.53125 0 L 4.0625 0 L 4.0625 -3.65625 L 3.984375 -3.65625 L 2.78125 -0.15625 L 2.265625 -0.15625 L 1.0625 -3.65625 L 0.96875 -3.65625 L 0.96875 0 L 0.515625 0 L 0.515625 -4.15625 L 1.34375 -4.15625 L 2.515625 -0.640625 L 3.703125 -4.15625 Z M 4.53125 -4.15625 "/></g></g></g><g fill="#002134" fill-opacity="1"><g transform="translate(222.44869, 219.536177)"><g><path d="M 0.96875 -3.75 L 0.96875 -2.3125 L 2.671875 -2.3125 L 2.671875 -1.90625 L 0.96875 -1.90625 L 0.96875 -0.40625 L 3.03125 -0.40625 L 3.03125 0 L 0.515625 0 L 0.515625 -4.15625 L 3.03125 -4.15625 L 3.03125 -3.75 Z M 0.96875 -3.75 "/></g></g></g><g fill="#002134" fill-opacity="1"><g transform="translate(226.066719, 219.536177)"><g><path d="M 1.640625 0.046875 C 1.359375 0.046875 0.992188 0.015625 0.546875 -0.046875 L 0.328125 -0.078125 L 0.375 -0.46875 C 0.914062 -0.394531 1.328125 -0.359375 1.609375 -0.359375 C 2.203125 -0.359375 2.5 -0.632812 2.5 -1.1875 C 2.5 -1.34375 2.472656 -1.460938 2.421875 -1.546875 C 2.367188 -1.640625 2.273438 -1.710938 2.140625 -1.765625 C 2.015625 -1.816406 1.828125 -1.867188 1.578125 -1.921875 C 1.253906 -1.984375 1 -2.054688 0.8125 -2.140625 C 0.632812 -2.234375 0.5 -2.351562 0.40625 -2.5 C 0.320312 -2.65625 0.28125 -2.859375 0.28125 -3.109375 C 0.28125 -3.847656 0.726562 -4.21875 1.625 -4.21875 C 1.9375 -4.21875 2.351562 -4.175781 2.875 -4.09375 L 2.84375 -3.703125 C 2.257812 -3.773438 1.863281 -3.8125 1.65625 -3.8125 C 1.050781 -3.8125 0.75 -3.582031 0.75 -3.125 C 0.75 -2.957031 0.78125 -2.828125 0.84375 -2.734375 C 0.90625 -2.648438 1.003906 -2.578125 1.140625 -2.515625 C 1.273438 -2.460938 1.5 -2.398438 1.8125 -2.328125 C 2.101562 -2.265625 2.328125 -2.191406 2.484375 -2.109375 C 2.648438 -2.023438 2.769531 -1.910156 2.84375 -1.765625 C 2.925781 -1.628906 2.96875 -1.445312 2.96875 -1.21875 C 2.96875 -0.375 2.523438 0.046875 1.640625 0.046875 Z M 1.640625 0.046875 "/></g></g></g><g fill="#002134" fill-opacity="1"><g transform="translate(229.618747, 219.536177)"><g><path d="M 1.640625 0.046875 C 1.359375 0.046875 0.992188 0.015625 0.546875 -0.046875 L 0.328125 -0.078125 L 0.375 -0.46875 C 0.914062 -0.394531 1.328125 -0.359375 1.609375 -0.359375 C 2.203125 -0.359375 2.5 -0.632812 2.5 -1.1875 C 2.5 -1.34375 2.472656 -1.460938 2.421875 -1.546875 C 2.367188 -1.640625 2.273438 -1.710938 2.140625 -1.765625 C 2.015625 -1.816406 1.828125 -1.867188 1.578125 -1.921875 C 1.253906 -1.984375 1 -2.054688 0.8125 -2.140625 C 0.632812 -2.234375 0.5 -2.351562 0.40625 -2.5 C 0.320312 -2.65625 0.28125 -2.859375 0.28125 -3.109375 C 0.28125 -3.847656 0.726562 -4.21875 1.625 -4.21875 C 1.9375 -4.21875 2.351562 -4.175781 2.875 -4.09375 L 2.84375 -3.703125 C 2.257812 -3.773438 1.863281 -3.8125 1.65625 -3.8125 C 1.050781 -3.8125 0.75 -3.582031 0.75 -3.125 C 0.75 -2.957031 0.78125 -2.828125 0.84375 -2.734375 C 0.90625 -2.648438 1.003906 -2.578125 1.140625 -2.515625 C 1.273438 -2.460938 1.5 -2.398438 1.8125 -2.328125 C 2.101562 -2.265625 2.328125 -2.191406 2.484375 -2.109375 C 2.648438 -2.023438 2.769531 -1.910156 2.84375 -1.765625 C 2.925781 -1.628906 2.96875 -1.445312 2.96875 -1.21875 C 2.96875 -0.375 2.523438 0.046875 1.640625 0.046875 Z M 1.640625 0.046875 "/></g></g></g><g fill="#002134" fill-opacity="1"><g transform="translate(233.170775, 219.536177)"><g><path d="M 2.671875 -1.0625 L 0.90625 -1.0625 L 0.59375 0 L 0.140625 0 L 1.28125 -4.15625 L 2.296875 -4.15625 L 3.4375 0 L 2.96875 0 Z M 1 -1.484375 L 2.578125 -1.484375 L 1.9375 -3.75 L 1.625 -3.75 Z M 1 -1.484375 "/></g></g></g><g fill="#002134" fill-opacity="1"><g transform="translate(237.046807, 219.536177)"><g><path d="M 1.953125 0.0625 C 1.546875 0.0625 1.222656 -0.0078125 0.984375 -0.15625 C 0.753906 -0.3125 0.585938 -0.546875 0.484375 -0.859375 C 0.390625 -1.171875 0.34375 -1.578125 0.34375 -2.078125 C 0.34375 -2.566406 0.390625 -2.96875 0.484375 -3.28125 C 0.585938 -3.59375 0.753906 -3.828125 0.984375 -3.984375 C 1.222656 -4.140625 1.539062 -4.21875 1.9375 -4.21875 C 2.300781 -4.21875 2.6875 -4.175781 3.09375 -4.09375 L 3.296875 -4.0625 L 3.28125 -3.671875 C 2.78125 -3.753906 2.347656 -3.796875 1.984375 -3.796875 C 1.679688 -3.796875 1.445312 -3.738281 1.28125 -3.625 C 1.113281 -3.507812 0.992188 -3.328125 0.921875 -3.078125 C 0.859375 -2.835938 0.828125 -2.503906 0.828125 -2.078125 C 0.828125 -1.648438 0.859375 -1.3125 0.921875 -1.0625 C 0.992188 -0.820312 1.113281 -0.640625 1.28125 -0.515625 C 1.445312 -0.398438 1.679688 -0.34375 1.984375 -0.34375 C 2.253906 -0.34375 2.539062 -0.375 2.84375 -0.4375 L 2.84375 -1.703125 L 2.15625 -1.703125 L 2.15625 -2.125 L 3.296875 -2.125 L 3.296875 -0.078125 C 2.796875 0.015625 2.347656 0.0625 1.953125 0.0625 Z M 1.953125 0.0625 "/></g></g></g><g fill="#002134" fill-opacity="1"><g transform="translate(241.042842, 219.536177)"><g><path d="M 0.515625 -4.15625 L 0.96875 -4.15625 L 0.96875 0 L 0.515625 0 Z M 0.515625 -4.15625 "/></g></g></g><g fill="#002134" fill-opacity="1"><g transform="translate(242.818858, 219.536177)"><g><path d="M 3.546875 -4.15625 L 3.546875 0 L 2.703125 0 L 1.09375 -3.75 L 0.96875 -3.75 L 0.96875 0 L 0.515625 0 L 0.515625 -4.15625 L 1.375 -4.15625 L 2.96875 -0.40625 L 3.09375 -0.40625 L 3.09375 -4.15625 Z M 3.546875 -4.15625 "/></g></g></g><g fill="#002134" fill-opacity="1"><g transform="translate(247.174894, 219.536177)"><g><path d="M 1.953125 0.0625 C 1.546875 0.0625 1.222656 -0.0078125 0.984375 -0.15625 C 0.753906 -0.3125 0.585938 -0.546875 0.484375 -0.859375 C 0.390625 -1.171875 0.34375 -1.578125 0.34375 -2.078125 C 0.34375 -2.566406 0.390625 -2.96875 0.484375 -3.28125 C 0.585938 -3.59375 0.753906 -3.828125 0.984375 -3.984375 C 1.222656 -4.140625 1.539062 -4.21875 1.9375 -4.21875 C 2.300781 -4.21875 2.6875 -4.175781 3.09375 -4.09375 L 3.296875 -4.0625 L 3.28125 -3.671875 C 2.78125 -3.753906 2.347656 -3.796875 1.984375 -3.796875 C 1.679688 -3.796875 1.445312 -3.738281 1.28125 -3.625 C 1.113281 -3.507812 0.992188 -3.328125 0.921875 -3.078125 C 0.859375 -2.835938 0.828125 -2.503906 0.828125 -2.078125 C 0.828125 -1.648438 0.859375 -1.3125 0.921875 -1.0625 C 0.992188 -0.820312 1.113281 -0.640625 1.28125 -0.515625 C 1.445312 -0.398438 1.679688 -0.34375 1.984375 -0.34375 C 2.253906 -0.34375 2.539062 -0.375 2.84375 -0.4375 L 2.84375 -1.703125 L 2.15625 -1.703125 L 2.15625 -2.125 L 3.296875 -2.125 L 3.296875 -0.078125 C 2.796875 0.015625 2.347656 0.0625 1.953125 0.0625 Z M 1.953125 0.0625 "/></g></g></g><g fill="#002134" fill-opacity="1"><g transform="translate(251.170929, 219.536177)"><g/></g></g><g fill="#002134" fill-opacity="1"><g transform="translate(252.790939, 219.536177)"><g><path d="M 0.515625 -4.15625 L 0.96875 -4.15625 L 0.96875 0 L 0.515625 0 Z M 0.515625 -4.15625 "/></g></g></g><g fill="#002134" fill-opacity="1"><g transform="translate(254.566954, 219.536177)"><g><path d="M 3.546875 -4.15625 L 3.546875 0 L 2.703125 0 L 1.09375 -3.75 L 0.96875 -3.75 L 0.96875 0 L 0.515625 0 L 0.515625 -4.15625 L 1.375 -4.15625 L 2.96875 -0.40625 L 3.09375 -0.40625 L 3.09375 -4.15625 Z M 3.546875 -4.15625 "/></g></g></g><g fill="#002134" fill-opacity="1"><g transform="translate(258.92299, 219.536177)"><g><path d="M 0.96875 -3.75 L 0.96875 -2.125 L 2.6875 -2.125 L 2.6875 -1.71875 L 0.96875 -1.71875 L 0.96875 0 L 0.515625 0 L 0.515625 -4.15625 L 3 -4.15625 L 3 -3.75 Z M 0.96875 -3.75 "/></g></g></g><g fill="#002134" fill-opacity="1"><g transform="translate(262.379016, 219.536177)"><g><path d="M 0.515625 -4.15625 L 2.046875 -4.15625 C 2.492188 -4.15625 2.828125 -4.050781 3.046875 -3.84375 C 3.265625 -3.632812 3.375 -3.316406 3.375 -2.890625 C 3.375 -2.242188 3.117188 -1.84375 2.609375 -1.6875 L 3.40625 0 L 2.890625 0 L 2.140625 -1.59375 L 0.96875 -1.59375 L 0.96875 0 L 0.515625 0 Z M 2.046875 -2 C 2.609375 -2 2.890625 -2.289062 2.890625 -2.875 C 2.890625 -3.457031 2.609375 -3.75 2.046875 -3.75 L 0.96875 -3.75 L 0.96875 -2 Z M 2.046875 -2 "/></g></g></g><g fill="#002134" fill-opacity="1"><g transform="translate(266.375051, 219.536177)"><g><path d="M 2.671875 -1.0625 L 0.90625 -1.0625 L 0.59375 0 L 0.140625 0 L 1.28125 -4.15625 L 2.296875 -4.15625 L 3.4375 0 L 2.96875 0 Z M 1 -1.484375 L 2.578125 -1.484375 L 1.9375 -3.75 L 1.625 -3.75 Z M 1 -1.484375 "/></g></g></g><g fill="#002134" fill-opacity="1"><g transform="translate(270.251084, 219.536177)"><g><path d="M 1.640625 0.046875 C 1.359375 0.046875 0.992188 0.015625 0.546875 -0.046875 L 0.328125 -0.078125 L 0.375 -0.46875 C 0.914062 -0.394531 1.328125 -0.359375 1.609375 -0.359375 C 2.203125 -0.359375 2.5 -0.632812 2.5 -1.1875 C 2.5 -1.34375 2.472656 -1.460938 2.421875 -1.546875 C 2.367188 -1.640625 2.273438 -1.710938 2.140625 -1.765625 C 2.015625 -1.816406 1.828125 -1.867188 1.578125 -1.921875 C 1.253906 -1.984375 1 -2.054688 0.8125 -2.140625 C 0.632812 -2.234375 0.5 -2.351562 0.40625 -2.5 C 0.320312 -2.65625 0.28125 -2.859375 0.28125 -3.109375 C 0.28125 -3.847656 0.726562 -4.21875 1.625 -4.21875 C 1.9375 -4.21875 2.351562 -4.175781 2.875 -4.09375 L 2.84375 -3.703125 C 2.257812 -3.773438 1.863281 -3.8125 1.65625 -3.8125 C 1.050781 -3.8125 0.75 -3.582031 0.75 -3.125 C 0.75 -2.957031 0.78125 -2.828125 0.84375 -2.734375 C 0.90625 -2.648438 1.003906 -2.578125 1.140625 -2.515625 C 1.273438 -2.460938 1.5 -2.398438 1.8125 -2.328125 C 2.101562 -2.265625 2.328125 -2.191406 2.484375 -2.109375 C 2.648438 -2.023438 2.769531 -1.910156 2.84375 -1.765625 C 2.925781 -1.628906 2.96875 -1.445312 2.96875 -1.21875 C 2.96875 -0.375 2.523438 0.046875 1.640625 0.046875 Z M 1.640625 0.046875 "/></g></g></g><g fill="#002134" fill-opacity="1"><g transform="translate(273.803111, 219.536177)"><g><path d="M 1.359375 -3.734375 L 0.078125 -3.734375 L 0.078125 -4.15625 L 3.078125 -4.15625 L 3.078125 -3.734375 L 1.8125 -3.734375 L 1.8125 0 L 1.359375 0 Z M 1.359375 -3.734375 "/></g></g></g><g fill="#002134" fill-opacity="1"><g transform="translate(277.259136, 219.536177)"><g><path d="M 0.515625 -4.15625 L 2.046875 -4.15625 C 2.492188 -4.15625 2.828125 -4.050781 3.046875 -3.84375 C 3.265625 -3.632812 3.375 -3.316406 3.375 -2.890625 C 3.375 -2.242188 3.117188 -1.84375 2.609375 -1.6875 L 3.40625 0 L 2.890625 0 L 2.140625 -1.59375 L 0.96875 -1.59375 L 0.96875 0 L 0.515625 0 Z M 2.046875 -2 C 2.609375 -2 2.890625 -2.289062 2.890625 -2.875 C 2.890625 -3.457031 2.609375 -3.75 2.046875 -3.75 L 0.96875 -3.75 L 0.96875 -2 Z M 2.046875 -2 "/></g></g></g><g fill="#002134" fill-opacity="1"><g transform="translate(281.255175, 219.536177)"><g><path d="M 1.921875 0.0625 C 1.429688 0.0625 1.066406 -0.0390625 0.828125 -0.25 C 0.597656 -0.457031 0.484375 -0.796875 0.484375 -1.265625 L 0.484375 -4.15625 L 0.9375 -4.15625 L 0.9375 -1.25 C 0.9375 -0.644531 1.257812 -0.34375 1.90625 -0.34375 C 2.25 -0.34375 2.503906 -0.414062 2.671875 -0.5625 C 2.835938 -0.707031 2.921875 -0.9375 2.921875 -1.25 L 2.921875 -4.15625 L 3.390625 -4.15625 L 3.390625 -1.265625 C 3.390625 -0.804688 3.265625 -0.46875 3.015625 -0.25 C 2.773438 -0.0390625 2.410156 0.0625 1.921875 0.0625 Z M 1.921875 0.0625 "/></g></g></g><g fill="#002134" fill-opacity="1"><g transform="translate(285.419214, 219.536177)"><g><path d="M 1.921875 0.0625 C 1.503906 0.0625 1.179688 -0.015625 0.953125 -0.171875 C 0.722656 -0.328125 0.566406 -0.554688 0.484375 -0.859375 C 0.398438 -1.171875 0.359375 -1.578125 0.359375 -2.078125 C 0.359375 -2.566406 0.398438 -2.960938 0.484375 -3.265625 C 0.566406 -3.578125 0.71875 -3.8125 0.9375 -3.96875 C 1.15625 -4.132812 1.472656 -4.21875 1.890625 -4.21875 C 2.210938 -4.21875 2.585938 -4.171875 3.015625 -4.078125 L 3 -3.6875 C 2.59375 -3.757812 2.242188 -3.796875 1.953125 -3.796875 C 1.640625 -3.796875 1.40625 -3.738281 1.25 -3.625 C 1.09375 -3.519531 0.984375 -3.34375 0.921875 -3.09375 C 0.859375 -2.84375 0.828125 -2.484375 0.828125 -2.015625 C 0.828125 -1.597656 0.851562 -1.273438 0.90625 -1.046875 C 0.96875 -0.816406 1.082031 -0.644531 1.25 -0.53125 C 1.414062 -0.414062 1.671875 -0.359375 2.015625 -0.359375 C 2.285156 -0.359375 2.613281 -0.394531 3 -0.46875 L 3.015625 -0.0625 C 2.609375 0.0195312 2.242188 0.0625 1.921875 0.0625 Z M 1.921875 0.0625 "/></g></g></g><g fill="#002134" fill-opacity="1"><g transform="translate(288.983246, 219.536177)"><g><path d="M 1.359375 -3.734375 L 0.078125 -3.734375 L 0.078125 -4.15625 L 3.078125 -4.15625 L 3.078125 -3.734375 L 1.8125 -3.734375 L 1.8125 0 L 1.359375 0 Z M 1.359375 -3.734375 "/></g></g></g><g fill="#002134" fill-opacity="1"><g transform="translate(292.439275, 219.536177)"><g><path d="M 1.921875 0.0625 C 1.429688 0.0625 1.066406 -0.0390625 0.828125 -0.25 C 0.597656 -0.457031 0.484375 -0.796875 0.484375 -1.265625 L 0.484375 -4.15625 L 0.9375 -4.15625 L 0.9375 -1.25 C 0.9375 -0.644531 1.257812 -0.34375 1.90625 -0.34375 C 2.25 -0.34375 2.503906 -0.414062 2.671875 -0.5625 C 2.835938 -0.707031 2.921875 -0.9375 2.921875 -1.25 L 2.921875 -4.15625 L 3.390625 -4.15625 L 3.390625 -1.265625 C 3.390625 -0.804688 3.265625 -0.46875 3.015625 -0.25 C 2.773438 -0.0390625 2.410156 0.0625 1.921875 0.0625 Z M 1.921875 0.0625 "/></g></g></g><g fill="#002134" fill-opacity="1"><g transform="translate(296.603314, 219.536177)"><g><path d="M 0.515625 -4.15625 L 2.046875 -4.15625 C 2.492188 -4.15625 2.828125 -4.050781 3.046875 -3.84375 C 3.265625 -3.632812 3.375 -3.316406 3.375 -2.890625 C 3.375 -2.242188 3.117188 -1.84375 2.609375 -1.6875 L 3.40625 0 L 2.890625 0 L 2.140625 -1.59375 L 0.96875 -1.59375 L 0.96875 0 L 0.515625 0 Z M 2.046875 -2 C 2.609375 -2 2.890625 -2.289062 2.890625 -2.875 C 2.890625 -3.457031 2.609375 -3.75 2.046875 -3.75 L 0.96875 -3.75 L 0.96875 -2 Z M 2.046875 -2 "/></g></g></g><g fill="#002134" fill-opacity="1"><g transform="translate(300.599353, 219.536177)"><g><path d="M 0.96875 -3.75 L 0.96875 -2.3125 L 2.671875 -2.3125 L 2.671875 -1.90625 L 0.96875 -1.90625 L 0.96875 -0.40625 L 3.03125 -0.40625 L 3.03125 0 L 0.515625 0 L 0.515625 -4.15625 L 3.03125 -4.15625 L 3.03125 -3.75 Z M 0.96875 -3.75 "/></g></g></g></svg>